<svg xmlns="http://www.w3.org/2000/svg" viewBox="0 0 800 450" width="800" height="450">
  <defs>
    <linearGradient id="bg" x1="0" y1="0" x2="1" y2="1">
      <stop offset="0%" stop-color="#0e1b30"/>
      <stop offset="100%" stop-color="#08111f"/>
    </linearGradient>
    <linearGradient id="a" x1="0" y1="0" x2="1" y2="1">
      <stop offset="0%" stop-color="#34d399"/>
      <stop offset="100%" stop-color="#22d3ee"/>
    </linearGradient>
  </defs>
  <rect width="800" height="450" fill="url(#bg)"/>
  <circle cx="120" cy="90" r="140" fill="#34d399" opacity="0.13"/>

  <rect x="90" y="90" width="280" height="240" rx="18" fill="#ffffff" opacity="0.07"/>
  <circle cx="150" cy="150" r="22" fill="#fbbf24" opacity="0.9"/>
  <path d="M110 300 l70 -90 l45 55 l35 -45 l70 80 z" fill="url(#a)" opacity="0.8"/>
  <rect x="112" y="310" width="120" height="10" rx="5" fill="#94a3b8" opacity="0.6"/>
  <rect x="112" y="286" width="70" height="10" rx="5" fill="#94a3b8" opacity="0.35"/>

  <g>
    <rect x="392" y="196" width="16" height="40" rx="8" fill="url(#a)"/>
    <path d="M430 216 l-30 -22 l-28 -22" fill="none" stroke="url(#a)" stroke-width="8" stroke-linecap="round"/>
    <path d="M372 172 l-28 22 l28 22" fill="none" stroke="url(#a)" stroke-width="8" stroke-linecap="round" stroke-linejoin="round"/>
  </g>

  <rect x="470" y="90" width="240" height="240" rx="18" fill="#ffffff" opacity="0.07"/>
  <circle cx="530" cy="150" r="22" fill="#fbbf24" opacity="0.9"/>
  <path d="M490 300 l70 -90 l45 55 l35 -45 l70 80 z" fill="url(#a)" opacity="0.55"/>
  <rect x="492" y="310" width="120" height="10" rx="5" fill="#94a3b8" opacity="0.6"/>
  <rect x="492" y="286" width="70" height="10" rx="5" fill="#94a3b8" opacity="0.35"/>

  <rect x="250" y="360" width="300" height="16" rx="8" fill="url(#a)" opacity="0.5"/>
  <rect x="250" y="360" width="120" height="16" rx="8" fill="url(#a)"/>
</svg>
